<?xml version="1.0" encoding="UTF-8" standalone="no"?>
<!-- Created with Inkscape (http://www.inkscape.org/) -->

<svg
   width="1122.5197"
   height="793.70081"
   viewBox="0 0 297 210"
   version="1.1"
   id="svg5"
   inkscape:version="1.1.2 (b8e25be833, 2022-02-05)"
   sodipodi:docname="dismer.svg"
   xmlns:inkscape="http://www.inkscape.org/namespaces/inkscape"
   xmlns:sodipodi="http://sodipodi.sourceforge.net/DTD/sodipodi-0.dtd"
   xmlns:xlink="http://www.w3.org/1999/xlink"
   xmlns="http://www.w3.org/2000/svg"
   xmlns:svg="http://www.w3.org/2000/svg">
  <sodipodi:namedview
     id="namedview7"
     pagecolor="#505050"
     bordercolor="#eeeeee"
     borderopacity="1"
     inkscape:pageshadow="0"
     inkscape:pageopacity="0"
     inkscape:pagecheckerboard="0"
     inkscape:document-units="px"
     showgrid="false"
     units="px"
     inkscape:zoom="0.68589358"
     inkscape:cx="622.54556"
     inkscape:cy="393.64707"
     inkscape:window-width="1920"
     inkscape:window-height="974"
     inkscape:window-x="-11"
     inkscape:window-y="-11"
     inkscape:window-maximized="1"
     inkscape:current-layer="layer1" />
  <defs
     id="defs2">
    <linearGradient
       inkscape:collect="always"
       id="linearGradient15177">
      <stop
         style="stop-color:#008080;stop-opacity:1;"
         offset="0"
         id="stop15173" />
      <stop
         style="stop-color:#004455;stop-opacity:1"
         offset="1"
         id="stop15175" />
    </linearGradient>
    <linearGradient
       inkscape:collect="always"
       id="linearGradient14947">
      <stop
         style="stop-color:#008080;stop-opacity:1;"
         offset="0"
         id="stop14943" />
      <stop
         style="stop-color:#006680;stop-opacity:1"
         offset="1"
         id="stop14945" />
    </linearGradient>
    <linearGradient
       inkscape:collect="always"
       xlink:href="#linearGradient14947"
       id="linearGradient14949"
       x1="807.59167"
       y1="678.94873"
       x2="820.82709"
       y2="473.83444"
       gradientUnits="userSpaceOnUse" />
    <linearGradient
       inkscape:collect="always"
       xlink:href="#linearGradient15177"
       id="linearGradient15179"
       x1="634.20917"
       y1="380.52551"
       x2="931.63141"
       y2="386.35733"
       gradientUnits="userSpaceOnUse" />
  </defs>
  <g
     inkscape:label="Capa 1"
     inkscape:groupmode="layer"
     id="layer1">
    <g
       id="g15826"
       transform="matrix(0.90421456,0,0,0.88363636,9.7339016,7.9211979)">
      <rect
         style="fill:#000000;fill-rule:evenodd;stroke-width:0.264583"
         id="rect15656"
         width="302.04211"
         height="212.1624"
         x="-3.0859988"
         y="-1.5429994" />
      <text
         xml:space="preserve"
         style="font-size:36.0327px;line-height:1.25;font-family:'Franklin Gothic Demi Cond';-inkscape-font-specification:'Franklin Gothic Demi Cond';word-spacing:0px;fill:#ffffff;stroke-width:0.900819"
         x="41.049698"
         y="121.69455"
         id="text13113"
         transform="scale(0.88626345,1.1283327)"><tspan
           sodipodi:role="line"
           id="tspan13111"
           style="fill:#ffffff;stroke-width:0.900819"
           x="41.049698"
           y="121.69455">Jmacetas</tspan></text>
      <path
         style="fill:#000000;stroke-width:0.11801"
         d="m 213.67529,179.63852 c -9.57124,-0.26439 -19.92097,-0.88405 -22.13893,-1.32548 -6.17572,-1.22919 -11.16721,-6.53535 -12.31469,-13.09103 -0.0961,-0.5493 -0.32912,-2.31894 -0.51771,-3.93252 -1.12196,-9.59941 -3.11175,-25.02465 -4.51156,-34.97457 -0.57633,-4.09657 -1.59376,-11.02771 -1.67583,-11.41645 -0.0497,-0.23533 -0.16022,-0.26976 -1.08928,-0.3393 -1.21743,-0.0911 -1.99293,-0.32705 -2.98613,-0.90849 -1.54168,-0.90254 -2.61144,-2.12048 -3.45751,-3.9364 -0.67161,-1.44148 -0.86953,-2.58754 -1.01842,-5.8972 -0.13123,-2.91708 -0.008,-7.803252 0.23967,-9.526477 0.28347,-1.969924 1.04193,-3.608432 2.33064,-5.034943 1.84925,-2.046971 3.4253,-2.616303 7.26009,-2.622644 0.95097,-0.0014 1.792,-0.0476 1.86895,-0.102267 0.0769,-0.05468 0.45365,-0.713919 0.83712,-1.464981 3.27942,-6.423053 8.95891,-10.503878 15.9788,-11.48109 1.25183,-0.174266 1.99335,-0.200798 3.73697,-0.133725 1.1964,0.04601 2.4414,0.128124 2.76668,0.182443 l 0.59143,0.09876 0.70414,-1.008396 c 2.54901,-3.650391 6.41843,-6.234 10.95326,-7.313479 1.42682,-0.339643 4.57074,-0.472132 6.13701,-0.258618 2.31254,0.315244 4.2448,0.977812 6.43383,2.206129 0.54926,0.308204 1.02841,0.527078 1.06477,0.486381 0.11332,-0.126822 0.22242,-2.996457 0.2254,-5.928905 0.004,-3.573437 0.004,-3.57306 -1.371,-4.671668 -2.24668,-1.795417 -4.58422,-2.702036 -8.09556,-3.139898 -0.97763,-0.12191 -3.56048,-0.227707 -7.3624,-0.30157 -3.22104,-0.06258 -6.23293,-0.172539 -6.69308,-0.244353 -2.61176,-0.407617 -4.63722,-1.08417 -6.58653,-2.200061 -3.65454,-2.092066 -5.88558,-5.10023 -6.88492,-9.283115 -0.25401,-1.063177 -0.28587,-1.436547 -0.28839,-3.379944 -0.002,-1.605958 0.0465,-2.423696 0.1833,-3.086755 0.58609,-2.840282 1.64039,-5.021153 3.41635,-7.066893 2.27911,-2.625343 4.92367,-4.115586 8.71002,-4.908203 0.8314,-0.174044 1.63659,-0.221328 3.73697,-0.219445 2.46502,0.0024 2.78777,0.02859 4.07163,0.332834 3.11117,0.737265 5.95697,2.172335 8.53369,4.303347 1.31979,1.091501 3.8165,3.897641 4.85886,5.461057 0.99871,1.497944 2.36432,4.030169 2.96101,5.49053 0.23922,0.585468 0.46755,1.065008 0.5074,1.06564 0.0399,4.72e-4 0.15694,-0.434238 0.26017,-0.966374 1.07201,-5.525917 3.2672,-10.982908 6.10553,-15.177627 0.90532,-1.33796 3.02283,-3.761887 4.21501,-4.824932 3.64531,-3.250485 7.59549,-4.87811 12.32644,-5.078969 3.57246,-0.151679 6.68564,0.735156 9.27679,2.642622 1.18699,0.873803 3.12457,3.007929 3.8524,4.243187 1.73065,2.937223 2.55972,6.305073 2.5507,10.361467 -0.009,4.189028 -1.08238,7.457886 -3.43766,10.471901 -1.98407,2.538977 -5.54732,5.119108 -8.78414,6.360562 -1.48743,0.570488 -4.21974,1.315189 -7.41817,2.021841 -6.60393,1.459064 -9.55802,2.542728 -12.21477,4.480807 -1.20493,0.878993 -2.73645,2.523789 -3.52331,3.783909 l -0.60623,0.970842 0.19118,4.041313 c 0.10514,2.222724 0.21285,4.065571 0.23934,4.095221 0.0265,0.02963 0.3927,-0.194819 0.81379,-0.498823 2.23828,-1.615867 5.26931,-2.873038 8.40691,-3.486892 1.19391,-0.233587 1.81139,-0.272764 4.29473,-0.272504 3.25776,3.77e-4 4.62971,0.188973 7.27434,1.000138 5.62247,1.724542 9.83968,4.901754 13.85762,10.440199 0.0351,0.04836 0.81719,0.116564 1.73802,0.151561 2.71636,0.103249 4.67913,0.610226 6.81287,1.759741 3.29911,1.77735 5.85792,5.102268 7.07112,9.188189 l 0.24511,0.825529 1.80282,0.07188 c 2.01139,0.08019 2.70531,0.242475 3.93657,0.920637 2.00362,1.103558 3.55883,3.275407 4.15991,5.809285 0.71636,3.019885 0.72009,12.220679 0.006,14.808079 -0.39226,1.42131 -1.08888,2.72793 -2.00491,3.76054 -1.40302,1.58159 -3.05133,2.42975 -5.02693,2.58669 -0.94933,0.0754 -0.98856,0.0905 -1.04677,0.40339 -0.14339,0.77061 -1.44452,9.83771 -2.35768,16.42965 -0.89463,6.45819 -2.60546,19.83254 -3.56122,27.83977 -0.85563,7.16843 -0.93165,7.54638 -2.00887,9.98736 -1.96043,4.4423 -5.71406,7.69008 -10.31675,8.92645 -1.65849,0.4455 -9.74948,1.03465 -18.96376,1.38087 -4.57005,0.1717 -24.40093,0.24908 -29.28226,0.11424 z m 23.09115,-2.92036 c 0.24541,-0.0308 1.47527,-0.0904 2.73301,-0.13242 7.27103,-0.24293 19.72698,-1.52487 22.63748,-2.3298 3.96625,-1.09692 7.11136,-4.27806 8.3728,-8.46868 0.31547,-1.04803 0.34888,-1.26179 1.17149,-7.49398 1.79229,-13.57856 3.58378,-28.57422 4.67574,-39.13796 0.50149,-4.85146 0.49296,-4.71176 0.28914,-4.7448 -0.092,-0.0149 -1.42228,-0.0642 -2.95612,-0.10945 -1.53383,-0.0453 -3.11507,-0.10783 -3.51387,-0.139 -0.39879,-0.0311 -1.90474,-0.0879 -3.34654,-0.126 -1.44181,-0.0381 -4.2027,-0.12218 -6.13534,-0.18676 -8.35755,-0.27929 -18.41941,-0.41263 -32.01527,-0.42426 -18.63892,-0.016 -27.36706,0.11153 -42.33379,0.61837 -8.93121,0.30245 -10.29577,0.36326 -10.38472,0.46281 -0.16435,0.18393 1.50578,15.40197 3.19562,29.11812 1.44712,11.74609 2.62101,20.52999 2.88677,21.601 0.489,1.97066 1.43677,3.79108 2.78381,5.34703 1.03185,1.19184 1.87186,1.87997 3.19354,2.61608 1.91294,1.06543 3.30229,1.3782 9.48013,2.13421 6.41683,0.78525 11.84794,1.17685 20.13504,1.45176 2.84955,0.0945 18.29181,0.0491 19.13108,-0.0563 z m 45.4514,-65.86226 c 1.54944,-0.6835 2.62368,-2.10319 3.0248,-3.99752 0.26312,-1.24267 0.17205,-9.851425 -0.12811,-12.109669 -0.20633,-1.552243 -1.16562,-3.158338 -2.33585,-3.910827 -1.01752,-0.654286 -1.13981,-0.668144 -9.5349,-1.080413 -16.6224,-0.81629 -29.56137,-1.125564 -47.01895,-1.123875 -10.39852,9.43e-4 -19.32177,0.105589 -26.10305,0.305929 -13.19384,0.389785 -27.86571,1.058511 -29.07455,1.325173 -1.73526,0.382793 -3.28804,2.316514 -3.60261,4.486434 -0.14841,1.023693 -0.1568,10.778788 -0.0102,11.781048 0.25122,1.71679 1.32063,3.36247 2.66737,4.10472 l 0.73246,0.40369 h 3.2376 c 3.14669,0 19.22408,-0.26187 22.92643,-0.37343 1.01233,-0.0305 9.89741,-0.0926 19.74462,-0.13812 21.3296,-0.0985 44.05232,0.12025 59.40116,0.57183 4.37554,0.12872 5.31223,0.091 6.07372,-0.24497 z M 185.34121,86.260212 c 2.7609,-0.06822 7.90621,-0.194248 11.43402,-0.280067 4.14877,-0.100923 14.5304,-0.156317 29.39382,-0.156837 23.76222,-9.43e-4 30.76056,0.08647 45.23413,0.564231 1.99398,0.06582 3.78941,0.120108 3.98984,0.120636 l 0.36443,9.44e-4 -0.2965,-0.655424 c -1.77314,-3.919639 -5.00032,-6.585046 -9.02548,-7.454371 -3.10499,-0.670594 -7.10977,-0.329823 -10.29906,0.876351 -1.13333,0.428618 -1.43103,0.417577 -1.86599,-0.06921 -0.32593,-0.364759 -0.36126,-1.113905 -0.0716,-1.517629 0.39509,-0.550618 2.76587,-1.664415 4.63209,-2.176167 0.56467,-0.154835 1.04896,-0.301654 1.0762,-0.326261 0.0844,-0.07622 -1.3373,-1.641563 -2.39211,-2.633818 -5.78503,-5.441914 -14.04239,-7.561913 -21.45607,-5.508638 -3.15307,0.873265 -5.6372,2.295807 -8.03042,4.598631 -1.38639,1.33403 -1.88314,1.424756 -2.89939,0.529536 -1.68417,-1.483604 -4.53595,-2.943993 -6.71842,-3.440486 -3.83232,-0.871821 -7.65511,-0.270819 -11.14965,1.752899 -2.15143,1.245913 -3.84345,2.880663 -5.23159,5.054518 -0.51271,0.802917 -0.87542,1.241081 -1.15612,1.39662 -0.39837,0.220738 -0.4447,0.2196 -1.77948,-0.04365 -1.73366,-0.341893 -4.91505,-0.464365 -6.5639,-0.252682 -4.56607,0.586205 -8.7063,2.797029 -11.69031,6.242441 -0.82771,0.955672 -2.35888,3.18579 -2.35888,3.43564 0,0.136698 0.18967,0.161324 0.9203,0.119471 0.50616,-0.02902 3.17922,-0.108529 5.94012,-0.176748 z m 81.26525,-1.09221 c -0.59922,-0.0851 -0.79069,-0.174251 -1.16579,-0.542832 -0.68278,-0.670924 -0.63529,-1.740297 0.10981,-2.472452 0.95394,-0.93735 2.55156,-0.829246 3.4768,0.235261 0.84755,0.975136 0.49997,2.182646 -0.74754,2.596986 -0.45328,0.150546 -1.27167,0.240069 -1.67328,0.183037 z m 1.49831,-1.717492 c -0.0119,-0.194786 -0.54296,-0.356851 -0.86911,-0.265242 -0.3368,0.09461 -0.38692,0.280983 -0.0993,0.369307 0.324,0.0995 0.9766,0.0294 0.96844,-0.104065 z m -60.06284,1.424364 c -0.87309,-0.189242 -1.68928,-0.739487 -2.09159,-1.410072 -0.3154,-0.525723 -0.36254,-0.708624 -0.36254,-1.406637 0,-2.071172 1.7464,-3.666848 4.00821,-3.662276 2.9303,0.0059 5.13348,2.754024 3.92196,4.891996 -0.25156,0.443929 -0.48383,0.658972 -1.03185,0.955313 -1.22953,0.66487 -3.07854,0.927678 -4.44419,0.631676 z m 3.37443,-2.616925 c 0.49216,-0.152963 0.53019,-0.376211 0.12488,-0.733005 -0.3981,-0.350452 -1.11165,-0.54883 -1.63637,-0.454928 -0.70968,0.127002 -1.56736,0.693006 -1.37551,0.907719 0.13077,0.146342 1.26338,0.390734 1.85516,0.400303 0.33744,0.0055 0.80177,-0.04859 1.03184,-0.120089 z m -19.84337,-0.853783 c -1.27612,-0.368519 -1.64914,-1.833867 -0.72897,-2.863666 0.71464,-0.799785 1.78064,-0.983403 2.75656,-0.474817 0.57176,0.29797 1.09141,0.865225 1.22539,1.33764 0.21311,0.751448 -0.30525,1.590405 -1.14975,1.860885 -0.58196,0.186388 -1.68767,0.259967 -2.10323,0.139958 z m 1.9116,-1.636726 c 0.10172,-0.184199 -0.49108,-0.396845 -0.85614,-0.307109 -0.35458,0.08715 -0.41454,0.26 -0.12006,0.346125 0.36794,0.107609 0.90713,0.08606 0.9762,-0.03902 z m 51.31356,-1.309131 c -1.25707,-0.381688 -1.82246,-0.788083 -2.17628,-1.564261 -0.43647,-0.95747 -0.19196,-2.012479 0.68517,-2.956403 0.75646,-0.814072 1.63173,-1.210562 2.79213,-1.264819 2.08741,-0.09759 3.6478,0.989385 4.00831,2.79222 0.11594,0.579801 0.10793,0.750481 -0.0581,1.23691 -0.26551,0.778089 -1.00233,1.479036 -1.82691,1.737965 -0.79576,0.249879 -2.62951,0.259727 -3.42435,0.0184 z m 1.82971,-2.192945 c 0.3928,-0.07133 0.81112,-0.187738 0.92956,-0.258679 0.20911,-0.125247 0.20943,-0.136448 0.0109,-0.386365 -0.56122,-0.70644 -1.82545,-0.923181 -2.68105,-0.459642 -0.4992,0.270447 -0.79593,0.682428 -0.62739,0.871052 0.12043,0.134773 0.87657,0.336387 1.31914,0.351722 0.18406,0.0064 0.65605,-0.04676 1.04885,-0.118088 z M 229.81852,51.880268 c 3.05046,-2.217694 6.15296,-3.351558 13.02748,-4.761126 5.69341,-1.167388 7.47302,-1.70194 9.80917,-2.946442 3.45573,-1.840908 5.94526,-4.342293 7.2537,-7.288254 0.66526,-1.497816 0.97865,-2.797783 1.09874,-4.557656 0.4888,-7.163565 -2.52479,-12.868146 -7.89888,-14.952162 -1.56505,-0.606913 -2.29398,-0.715433 -4.74094,-0.705793 -1.86693,0.0074 -2.42217,0.05442 -3.40231,0.288381 -6.12176,1.461305 -10.96019,6.056955 -14.27668,13.560289 -1.82907,4.138164 -2.9274,8.585348 -3.39565,13.749177 -0.17978,1.982593 -0.28714,4.79062 -0.18309,4.7887 0.0346,-4.72e-4 0.31394,-0.518377 0.62071,-1.150525 0.793,-1.634118 2.5422,-4.544049 3.69779,-6.151573 1.7227,-2.396429 4.24385,-5.084333 6.56009,-6.993979 1.83429,-1.512297 5.8031,-3.965083 7.67178,-4.741275 0.49596,-0.206002 0.54486,-0.206521 0.81475,-0.0086 0.35976,0.263813 0.49677,0.662743 0.36877,1.073709 -0.0738,0.237026 -0.37312,0.469395 -1.18386,0.919161 -3.68884,2.046424 -6.33661,4.15029 -9.1284,7.253229 -2.97482,3.306393 -5.13752,6.80376 -6.90994,11.174293 -0.74366,1.833773 -0.84914,2.12231 -0.7758,2.12231 0.0266,0 0.46429,-0.302333 0.97257,-0.671848 z m -7.9442,0.336245 c 0,-0.222144 -1.73986,-2.611717 -2.78879,-3.830192 -3.95933,-4.599325 -8.71171,-7.523029 -14.3322,-8.817273 -0.60727,-0.139835 -1.19746,-0.348777 -1.31153,-0.464308 -0.29924,-0.303065 -0.22326,-1.003324 0.1418,-1.306969 0.27,-0.224574 0.3322,-0.226504 1.39439,-0.04317 7.2888,1.257888 13.38189,5.078058 18.27428,11.45739 0.86482,1.127673 0.85805,1.143017 0.50949,-1.153701 -0.89694,-5.910201 -3.31823,-11.499034 -6.66521,-15.384653 -3.74388,-4.346398 -8.49392,-6.710949 -13.48441,-6.712492 -4.85534,-0.0014 -8.8725,1.840233 -11.24242,5.154265 -0.82565,1.154564 -1.59757,2.815648 -1.95576,4.208535 -0.30679,1.193 -0.41951,3.723748 -0.22573,5.068078 0.79857,5.540172 4.92423,9.20929 11.43949,10.173621 0.66425,0.09832 3.2499,0.155595 7.64128,0.169283 6.21426,0.01935 6.73189,0.03784 8.1212,0.289953 1.54552,0.28045 3.28699,0.754658 3.93785,1.072279 0.43988,0.214666 0.54627,0.237913 0.54627,0.119372 z"
         id="path14427" />
      <path
         style="fill:#668000;stroke:none;stroke-width:14.878;stroke-miterlimit:4;stroke-dasharray:none;stroke-opacity:1;paint-order:markers fill stroke"
         d="m 828.84578,193.72675 c -3.60843,-0.97426 -13.77764,-1.85502 -22.59825,-1.95723 -31.6964,-0.36732 -51.99898,-2.28306 -59.52746,-5.61699 -11.30997,-5.00851 -17.92406,-11.18338 -22.98045,-21.45436 -4.29737,-8.72921 -4.56635,-10.17992 -3.97531,-21.44065 0.51587,-9.82863 1.42402,-13.5296 4.8764,-19.87277 12.97735,-23.843654 43.69914,-31.274865 72.13013,-17.44735 22.32589,10.85827 43.19627,42.63653 47.47268,72.28422 l 1.00079,6.9383 -10.02948,-10.25468 c -11.85382,-12.12 -20.32193,-18.1879 -34.54448,-24.75313 -11.47158,-5.29538 -26.78761,-9.04173 -30.74946,-7.52142 -5.32397,2.043 -1.69652,5.81313 8.62555,8.96482 15.0635,4.59943 27.86442,11.97816 39.04542,22.50664 9.67634,9.11162 19.44153,20.3013 18.35496,21.03246 -0.29714,0.19994 -3.4926,-0.43359 -7.10104,-1.40786 z"
         id="path14564"
         transform="scale(0.26458333)" />
      <path
         style="fill:#668000;stroke:none;stroke-width:14.878;stroke-miterlimit:4;stroke-dasharray:none;stroke-opacity:1;paint-order:markers fill stroke"
         d="m 866.75254,195.68001 c 0,-0.42437 1.95063,-5.11918 4.33474,-10.43291 10.69177,-23.82994 30.20064,-46.47146 51.43193,-59.69066 11.26266,-7.01245 12.8231,-9.00004 9.59792,-12.22523 -1.29632,-1.29631 -3.98557,-0.4958 -11.29913,3.36342 -21.95825,11.58692 -38.29897,27.1953 -53.41109,51.01735 l -8.29387,13.07408 0.95833,-13.5139 c 2.79493,-39.41261 21.80264,-78.088733 46.01231,-93.624039 9.34032,-5.993665 22.91782,-10.227204 32.79996,-10.227204 12.8635,0 22.27442,3.904788 31.51088,13.074528 11.18508,11.104276 14.87795,20.788845 15.02829,39.411745 0.0992,12.28699 -0.35892,14.87466 -4.05808,22.92247 -8.41828,18.31465 -27.07253,30.66384 -55.56513,36.78434 -31.75465,6.82122 -49.28027,12.73188 -57.17257,19.28191 -1.03097,0.85563 -1.87449,1.20847 -1.87449,0.7841 z"
         id="path14603"
         transform="scale(0.26458333)" />
      <path
         style="fill:url(#linearGradient14949);fill-opacity:1;stroke:none;stroke-width:14.878;stroke-miterlimit:4;stroke-dasharray:none;stroke-opacity:1;paint-order:markers fill stroke"
         d="m 791.668,666.13459 c -3.20749,-0.29667 -14.03278,-1.2345 -24.05621,-2.08405 -43.11501,-3.6543 -58.01128,-7.87207 -67.6747,-19.1616 -10.58022,-12.36061 -11.05793,-14.44966 -20.44538,-89.40918 -7.98252,-63.74106 -14.14031,-120.56329 -13.17045,-121.53315 3.29941,-3.29941 252.12978,-5.2135 336.49584,-2.58843 35.4566,1.10324 40.6845,1.56254 41.4871,3.64488 2.0193,5.23876 -19.6813,182.39502 -23.8201,194.45931 -3.0006,8.74657 -13.6309,20.66123 -22.35899,25.06045 -15.77755,7.95239 -52.9276,11.21388 -133.5595,11.72558 -36.88619,0.23408 -69.69011,0.18286 -72.89761,-0.11386 z"
         id="path14679"
         transform="scale(0.26458333)" />
      <path
         style="fill:url(#linearGradient15179);fill-opacity:1;stroke:none;stroke-width:14.878;stroke-miterlimit:4;stroke-dasharray:none;stroke-opacity:1;paint-order:markers fill stroke"
         d="m 641.20307,415.75211 c -6.87594,-5.40859 -7.72325,-9.30825 -7.71742,-35.51869 0.006,-26.66045 1.06429,-30.78234 9.28726,-36.17024 13.00621,-8.522 269.11344,-10.89364 396.34609,-3.67031 27.4471,1.55825 31.4193,2.80836 35.3686,11.13078 3.9593,8.3436 5.0191,46.1838 1.548,55.27269 -4.7279,12.37979 16.289,11.28656 -220.53365,11.47136 -202.63796,0.15812 -211.02496,0.0597 -214.29888,-2.51559 z"
         id="path14718"
         transform="scale(0.26458333)" />
      <path
         style="fill:#552200;stroke:none;stroke-width:14.878;stroke-miterlimit:4;stroke-dasharray:none;stroke-opacity:1;paint-order:markers fill stroke"
         d="m 677.60236,322.20742 c 0.85463,-1.60375 5.54647,-6.90784 10.42632,-11.78688 15.69232,-15.68973 36.36758,-22.59623 58.98548,-19.70389 5.91159,0.75597 11.48825,1.06224 12.39259,0.6806 0.90434,-0.38164 4.20819,-4.12471 7.34188,-8.31795 12.02806,-16.0949 26.30439,-23.34713 46.05968,-23.39784 13.84082,-0.0355 22.02616,2.72499 34.6113,11.6727 3.81205,2.71027 7.31765,4.92777 7.79021,4.92777 0.47255,0 5.0672,-3.38403 10.21031,-7.52007 14.94924,-12.022 29.74342,-17.26512 48.71585,-17.26512 20.77277,0 42.59142,8.75551 57.965,23.26052 8.06756,7.61175 8.76974,8.70286 6.1849,9.61054 -1.60375,0.56316 -6.40541,2.56699 -10.67035,4.45297 -6.96271,3.07895 -7.70701,3.84197 -7.28976,7.47321 0.55841,4.85987 3.33986,5.0266 20.14703,1.20765 22.7804,-5.1762 43.2577,2.09865 55.2633,19.63307 2.482,3.62499 4.5128,6.90538 4.5128,7.28976 0,0.38437 -81.94507,0.69886 -182.10019,0.69886 -181.64621,0 -182.09634,-0.007 -180.54635,-2.9159 z m 340.40794,-3.16127 c 2.5521,-3.49017 2.3371,-4.48013 -1.891,-8.70826 -2.9047,-2.9047 -4.5777,-3.50255 -7.6461,-2.73242 -5.4459,1.36683 -7.5891,3.45282 -7.5891,7.38657 0,5.40927 4.0496,8.3785 10.0902,7.39826 2.8648,-0.4649 6.031,-1.96977 7.036,-3.34415 z m -214.31419,-0.46763 c 4.02176,-2.45212 4.73834,-3.73578 4.73834,-8.48812 0,-13.48085 -19.36157,-19.53469 -28.34218,-8.86185 -4.80061,5.70521 -4.85851,11.96692 -0.15415,16.67128 4.67736,4.67737 16.63923,5.01908 23.75799,0.67869 z m -69.52137,-11.73089 c 6.37988,-3.41441 1.42713,-13.07028 -6.70408,-13.07028 -7.0174,0 -10.7913,6.1543 -7.04965,11.49624 2.36562,3.37741 8.9715,4.13341 13.75373,1.57404 z M 942.9116,294.07978 c 5.86172,-5.86173 2.27889,-16.2244 -6.62555,-19.16313 -10.86297,-3.58511 -23.48723,5.94678 -20.0053,15.10493 3.02136,7.94677 20.13446,10.55459 26.63085,4.0582 z"
         id="path14794"
         transform="scale(0.26458333)" />
      <g
         id="g15632"
         transform="matrix(0.27448789,0,0,0.2752892,-62.594132,71.877129)">
        <path
           style="fill:#66ff00;stroke:none;stroke-width:14.878;stroke-miterlimit:4;stroke-dasharray:none;stroke-opacity:1;paint-order:markers fill stroke"
           d="m 1364.9076,484.04909 c -30.3748,-5.36963 -52.2401,-16.41115 -72.9245,-36.82547 -21.192,-20.91524 -35.8033,-49.16719 -44.6744,-86.38047 -6.6164,-27.75524 -7.8397,-41.03449 -7.9469,-86.26028 -0.056,-23.78788 0.3789,-43.73298 0.9674,-44.32244 2.483,-2.48743 51.356,13.92083 76.3159,25.62174 70.6389,33.11479 109.2053,77.63218 118.8698,137.21238 2.585,15.93612 -0.1757,52.71432 -5.269,70.19385 -5.0128,17.20355 -6.2565,19.59629 -10.7365,20.65725 -8.5502,2.0248 -43.3599,2.09076 -54.6018,0.10336 z"
           id="path15374"
           transform="scale(0.26458333)" />
        <path
           style="fill:#66ff00;stroke:none;stroke-width:14.878;stroke-miterlimit:4;stroke-dasharray:none;stroke-opacity:1;paint-order:markers fill stroke"
           d="m 1470.6007,478.40818 c -12.3559,-24.74026 -13.9022,-58.98379 -3.7946,-84.03213 10.5557,-26.15853 34.5983,-49.75203 67.6046,-66.34152 15.2052,-7.64241 27.0985,-12.66038 41.175,-17.37241 10.7223,-3.58923 31.6496,-9.59501 33.4341,-9.59501 4.0391,0 1.8977,46.43545 -3.3281,72.16863 -7.1125,35.02359 -17.3177,55.95678 -37.5492,77.02125 -20.2969,21.13264 -44.9954,31.75939 -78.8518,33.92667 l -15.3159,0.98044 z"
           id="path15413"
           transform="scale(0.26458333)" />
      </g>
    </g>
  </g>
</svg>
