<?xml version="1.0" encoding="UTF-8" standalone="no"?>
<!-- Created with Inkscape (http://www.inkscape.org/) -->

<svg
   width="793.70081"
   height="784.51965"
   viewBox="0 0 210.00001 207.57146"
   version="1.1"
   id="svg5"
   sodipodi:docname="logodem.svg"
   inkscape:version="1.1.2 (b8e25be833, 2022-02-05)"
   xmlns:inkscape="http://www.inkscape.org/namespaces/inkscape"
   xmlns:sodipodi="http://sodipodi.sourceforge.net/DTD/sodipodi-0.dtd"
   xmlns:xlink="http://www.w3.org/1999/xlink"
   xmlns="http://www.w3.org/2000/svg"
   xmlns:svg="http://www.w3.org/2000/svg">
  <sodipodi:namedview
     id="namedview7"
     pagecolor="#505050"
     bordercolor="#eeeeee"
     borderopacity="1"
     inkscape:pageshadow="0"
     inkscape:pageopacity="0"
     inkscape:pagecheckerboard="0"
     inkscape:document-units="px"
     showgrid="false"
     units="px"
     inkscape:zoom="0.68589358"
     inkscape:cx="590.47061"
     inkscape:cy="277.0109"
     inkscape:window-width="1920"
     inkscape:window-height="974"
     inkscape:window-x="-11"
     inkscape:window-y="-11"
     inkscape:window-maximized="1"
     inkscape:current-layer="layer1" />
  <defs
     id="defs2">
    <linearGradient
       inkscape:collect="always"
       id="linearGradient15177">
      <stop
         style="stop-color:#008080;stop-opacity:1;"
         offset="0"
         id="stop15173" />
      <stop
         style="stop-color:#004455;stop-opacity:1"
         offset="1"
         id="stop15175" />
    </linearGradient>
    <linearGradient
       inkscape:collect="always"
       id="linearGradient14947">
      <stop
         style="stop-color:#008080;stop-opacity:1;"
         offset="0"
         id="stop14943" />
      <stop
         style="stop-color:#006680;stop-opacity:1"
         offset="1"
         id="stop14945" />
    </linearGradient>
    <linearGradient
       inkscape:collect="always"
       xlink:href="#linearGradient14947"
       id="linearGradient14949"
       x1="807.59167"
       y1="678.94873"
       x2="820.82709"
       y2="473.83444"
       gradientUnits="userSpaceOnUse"
       gradientTransform="matrix(0.2392401,0,0,0.23379545,-100.59054,11.778706)" />
    <linearGradient
       inkscape:collect="always"
       xlink:href="#linearGradient15177"
       id="linearGradient15179"
       x1="634.20917"
       y1="380.52551"
       x2="931.63141"
       y2="386.35733"
       gradientUnits="userSpaceOnUse"
       gradientTransform="matrix(0.2392401,0,0,0.23379545,-100.59054,11.778706)" />
  </defs>
  <g
     inkscape:label="Capa 1"
     inkscape:groupmode="layer"
     id="layer1">
    <ellipse
       style="fill:#000000;stroke:none;stroke-width:3.03994;stroke-miterlimit:4;stroke-dasharray:none;stroke-opacity:1;paint-order:markers fill stroke"
       id="path16071"
       cx="104.15247"
       cy="103.1881"
       rx="98.366203"
       ry="100.10209" />
    <path
       style="fill:#000000;stroke-width:0.105485"
       d="m 92.617764,170.51384 c -8.65445,-0.23363 -18.01283,-0.78118 -20.01834,-1.17125 -5.58418,-1.08615 -10.09756,-5.77487 -11.13512,-11.56771 -0.0869,-0.48538 -0.2976,-2.0491 -0.46813,-3.47491 -1.01449,-8.48239 -2.81369,-22.11269 -4.07941,-30.90481 -0.52113,-3.61987 -1.44111,-9.74448 -1.51531,-10.08799 -0.0449,-0.20794 -0.14488,-0.23837 -0.98495,-0.29981 -1.10081,-0.0805 -1.80203,-0.289 -2.7001,-0.80278 -1.39401,-0.79752 -2.3613,-1.87373 -3.12633,-3.47835 -0.60728,-1.27374 -0.78624,-2.28644 -0.92087,-5.21098 -0.11866,-2.57763 -0.007,-6.895235 0.21671,-8.417939 0.25632,-1.740696 0.94213,-3.188542 2.1074,-4.449059 1.67212,-1.808778 3.09721,-2.31186 6.56468,-2.317463 0.85988,-0.0012 1.62035,-0.04206 1.68993,-0.09037 0.0695,-0.04832 0.4102,-0.630845 0.75694,-1.294511 2.9653,-5.675643 8.10078,-9.281608 14.44826,-10.145108 1.13193,-0.153988 1.80242,-0.177432 3.37902,-0.118164 1.08181,0.04066 2.20755,0.113215 2.50168,0.161213 l 0.53478,0.08727 0.63669,-0.891056 c 2.30485,-3.225618 5.80364,-5.508589 9.9041,-6.462455 1.29015,-0.300121 4.13293,-0.417193 5.54917,-0.228525 2.09103,0.278561 3.83821,0.86403 5.817556,1.949416 0.49666,0.27234 0.92992,0.465745 0.96279,0.429784 0.10247,-0.112065 0.20112,-2.647778 0.20381,-5.238996 0.004,-3.157619 0.004,-3.157286 -1.23968,-4.128056 -2.031476,-1.586496 -4.145116,-2.387617 -7.320126,-2.774528 -0.88398,-0.107724 -3.21943,-0.20121 -6.65719,-0.266478 -2.91251,-0.0553 -5.6359,-0.152462 -6.05198,-0.215919 -2.36159,-0.360185 -4.19304,-0.958012 -5.95563,-1.944054 -3.30449,-1.848626 -5.32183,-4.506749 -6.22545,-8.202898 -0.22968,-0.939462 -0.25849,-1.269385 -0.26076,-2.986641 -0.002,-1.419083 0.042,-2.141666 0.16574,-2.727569 0.52995,-2.509777 1.48326,-4.436874 3.08911,-6.244564 2.06081,-2.319849 4.45206,-3.636681 7.87573,-4.337067 0.75176,-0.153791 1.47983,-0.195573 3.37902,-0.193909 2.22891,0.0021 2.52074,0.02526 3.68163,0.294104 2.81316,0.651474 5.38638,1.919554 7.71629,3.802594 1.19337,0.96449 3.45093,3.444097 4.39345,4.825588 0.903046,1.323638 2.137846,3.561204 2.677396,4.851632 0.2163,0.517341 0.42276,0.94108 0.45879,0.941639 0.0361,4.17e-4 0.14191,-0.383709 0.23525,-0.853924 0.96933,-4.882901 2.95425,-9.704896 5.52071,-13.411503 0.81861,-1.18227 2.73329,-3.32414 3.81128,-4.263485 3.29614,-2.872247 6.86795,-4.310475 11.14574,-4.487962 3.23027,-0.134029 6.04526,0.649611 8.38821,2.335117 1.07329,0.772124 2.82528,2.657916 3.4834,3.749434 1.56488,2.595438 2.31453,5.571392 2.30638,9.155769 -0.008,3.701578 -0.97871,6.59006 -3.10838,9.253353 -1.79403,2.243532 -5.01597,4.52343 -7.94275,5.620424 -1.34496,0.504104 -3.81555,1.162149 -6.70762,1.786572 -5.97137,1.289282 -8.6425,2.246847 -11.04477,3.959404 -1.08952,0.77671 -2.47434,2.230112 -3.18583,3.3436 l -0.54816,0.857871 0.17287,3.571051 c 0.0951,1.96408 0.19246,3.592486 0.21641,3.618686 0.024,0.02618 0.35509,-0.172149 0.73584,-0.440778 2.02389,-1.427839 4.76459,-2.538721 7.60165,-3.081145 1.07955,-0.206406 1.63789,-0.241024 3.88336,-0.240794 2.94571,3.33e-4 4.18625,0.166983 6.57756,0.883758 5.08392,1.523868 8.89718,4.331368 12.53026,9.22534 0.0317,0.04273 0.73892,0.103 1.57155,0.133925 2.45617,0.09123 4.23094,0.539217 6.16029,1.554971 2.98311,1.570531 5.29682,4.508549 6.39381,8.119018 l 0.22164,0.729467 1.63013,0.06352 c 1.81873,0.07086 2.44618,0.21426 3.55951,0.813508 1.8117,0.975144 3.21794,2.894269 3.76145,5.133296 0.64774,2.66848 0.65111,10.798636 0.005,13.084956 -0.35469,1.25592 -0.98458,2.4105 -1.81287,3.32295 -1.26863,1.39755 -2.75905,2.14701 -4.54542,2.28569 -0.8584,0.0666 -0.89387,0.08 -0.9465,0.35645 -0.12966,0.68094 -1.30616,8.69296 -2.13185,14.51784 -0.80894,5.70669 -2.3559,17.52475 -3.22011,24.60023 -0.77367,6.33429 -0.84241,6.66826 -1.81645,8.8252 -1.77265,3.92537 -5.16674,6.79523 -9.32856,7.88773 -1.49963,0.39366 -8.81562,0.91426 -17.1473,1.22019 -4.13231,0.15172 -22.063686,0.2201 -26.477456,0.10095 z m 20.879356,-2.58054 c 0.22191,-0.0272 1.33396,-0.0799 2.47123,-0.11701 6.57457,-0.21466 17.83742,-1.34743 20.46914,-2.0587 3.58634,-0.96928 6.4302,-3.78025 7.57081,-7.48323 0.28525,-0.92608 0.31546,-1.11496 1.05928,-6.62195 1.62061,-11.99851 3.2405,-25.24922 4.22787,-34.58373 0.45345,-4.28693 0.44574,-4.16348 0.26144,-4.19268 -0.0832,-0.0132 -1.28604,-0.0567 -2.67296,-0.0967 -1.38691,-0.04 -2.8167,-0.0953 -3.1773,-0.12283 -0.36059,-0.0275 -1.72229,-0.0777 -3.02599,-0.11133 -1.3037,-0.0337 -3.80014,-0.10797 -5.54766,-0.16503 -7.55702,-0.24679 -16.6551,-0.36462 -28.94867,-0.37489 -16.853596,-0.0141 -24.745706,0.0986 -38.278836,0.54641 -8.07573,0.26726 -9.30959,0.32099 -9.39002,0.40896 -0.14861,0.16252 1.36155,13.60974 2.88953,25.72983 1.30851,10.37927 2.36995,18.14104 2.61026,19.08742 0.44216,1.74135 1.29915,3.34994 2.51716,4.72483 0.93301,1.05316 1.69256,1.66121 2.88764,2.31167 1.72971,0.94145 2.98598,1.21783 8.57208,1.88586 5.80219,0.69388 10.71308,1.03991 18.20639,1.28283 2.57661,0.0835 16.539726,0.0434 17.298606,-0.0497 z m 41.09782,-58.19829 c 1.40103,-0.60396 2.37237,-1.85845 2.73507,-3.53235 0.23792,-1.09807 0.15557,-8.705081 -0.11584,-10.700548 -0.18657,-1.371618 -1.05397,-2.790822 -2.11211,-3.455749 -0.92006,-0.578151 -1.03063,-0.590396 -8.62159,-0.954692 -15.03022,-0.721304 -26.72983,-0.994589 -42.51522,-0.993097 -9.402506,8.33e-4 -17.471036,0.0933 -23.602766,0.27033 -11.93006,0.344428 -25.19658,0.935339 -26.28963,1.170971 -1.56905,0.33825 -2.9731,2.046956 -3.25754,3.964376 -0.13419,0.904573 -0.14178,9.524529 -0.009,10.410169 0.22716,1.51701 1.19413,2.9712 2.41188,3.62708 l 0.6623,0.35671 h 2.92748 c 2.84529,0 17.3827,-0.2314 20.73041,-0.32998 0.91537,-0.0269 8.94939,-0.0818 17.85338,-0.12204 19.286536,-0.087 39.832756,0.10625 53.711396,0.50529 3.95643,0.11374 4.8034,0.0804 5.49195,-0.21647 z M 66.997674,88.001366 c 2.49645,-0.06028 7.14891,-0.171645 10.33881,-0.247478 3.75138,-0.08918 13.1386,-0.138127 26.578326,-0.138587 21.48614,-8.33e-4 27.81415,0.07641 40.90136,0.498575 1.80298,0.05816 3.42644,0.106132 3.60767,0.106599 l 0.32952,8.34e-4 -0.2681,-0.579157 c -1.6033,-3.463535 -4.52136,-5.818786 -8.16097,-6.586953 -2.80757,-0.592561 -6.42875,-0.291443 -9.31256,0.774376 -1.02477,0.378742 -1.29396,0.368986 -1.68725,-0.06116 -0.29471,-0.322314 -0.32666,-0.984287 -0.0647,-1.341032 0.35724,-0.486546 2.50094,-1.470737 4.1884,-1.92294 0.51058,-0.136818 0.94848,-0.266553 0.97311,-0.288296 0.0763,-0.06735 -1.2092,-1.450545 -2.16298,-2.327338 -5.2309,-4.808673 -12.69733,-6.681981 -19.40089,-4.867632 -2.85105,0.771648 -5.09724,2.028658 -7.26122,4.063517 -1.25359,1.178798 -1.70276,1.258966 -2.62167,0.467917 -1.52286,-1.310966 -4.101476,-2.601419 -6.074896,-3.040138 -3.46524,-0.770373 -6.92187,-0.239306 -10.08168,1.548925 -1.94535,1.100934 -3.4753,2.545459 -4.73048,4.466356 -0.4636,0.709487 -0.79157,1.096664 -1.04538,1.234104 -0.36021,0.195052 -0.4021,0.194047 -1.60903,-0.03857 -1.5676,-0.30211 -4.44426,-0.41033 -5.93518,-0.223279 -4.1287,0.517992 -7.87236,2.471556 -10.57054,5.516047 -0.74843,0.844467 -2.13294,2.81508 -2.13294,3.035857 0,0.120791 0.1715,0.142552 0.83215,0.105569 0.45768,-0.02564 2.8747,-0.0959 5.37114,-0.156181 z M 140.4789,87.036249 c -0.54182,-0.0752 -0.71495,-0.153974 -1.05412,-0.479666 -0.61738,-0.592853 -0.57444,-1.53779 0.0993,-2.184748 0.86257,-0.828277 2.30716,-0.732752 3.14378,0.207885 0.76636,0.861665 0.45208,1.928665 -0.67594,2.294791 -0.40986,0.133028 -1.14986,0.212134 -1.51301,0.161738 z m 1.3548,-1.517638 c -0.0108,-0.17212 -0.49095,-0.315327 -0.78586,-0.234378 -0.30454,0.0836 -0.34986,0.248287 -0.0898,0.326333 0.29296,0.08792 0.88305,0.02598 0.87568,-0.09195 z m -54.309706,1.25862 c -0.78946,-0.167221 -1.52747,-0.653438 -1.89124,-1.245991 -0.28519,-0.464548 -0.32782,-0.626166 -0.32782,-1.242956 0,-1.830163 1.57912,-3.24016 3.62429,-3.23612 2.64962,0.0052 4.64176,2.433556 3.54629,4.322745 -0.22747,0.392272 -0.43749,0.582292 -0.93301,0.84415 -1.11176,0.587503 -2.78367,0.81973 -4.01851,0.558172 z m 3.05121,-2.31241 c 0.44502,-0.135164 0.47941,-0.332434 0.11292,-0.64771 -0.35997,-0.309672 -1.00517,-0.484966 -1.47963,-0.401991 -0.6417,0.112223 -1.41723,0.612365 -1.24375,0.802093 0.11824,0.129313 1.14236,0.345267 1.67746,0.353723 0.30512,0.0049 0.72497,-0.04294 0.933,-0.106115 z m -17.94266,-0.754434 c -1.15389,-0.325637 -1.49118,-1.620472 -0.65915,-2.53044 0.64619,-0.706719 1.61008,-0.86897 2.49252,-0.419565 0.517,0.263297 0.98687,0.764544 1.10802,1.181987 0.1927,0.664007 -0.27601,1.40534 -1.03962,1.644346 -0.52622,0.164699 -1.52602,0.229716 -1.90177,0.123672 z m 1.7285,-1.446271 c 0.092,-0.162765 -0.44405,-0.350666 -0.77414,-0.271372 -0.32062,0.07701 -0.37483,0.229745 -0.10856,0.305848 0.3327,0.09509 0.82024,0.07605 0.8827,-0.03448 z M 120.75951,81.10732 c -1.13666,-0.337273 -1.64789,-0.696378 -1.96782,-1.382237 -0.39466,-0.846056 -0.17357,-1.7783 0.61954,-2.612386 0.684,-0.719343 1.47543,-1.069696 2.52468,-1.11764 1.88747,-0.08623 3.2984,0.874257 3.62438,2.467307 0.10483,0.512334 0.0976,0.663153 -0.0525,1.092979 -0.24008,0.687548 -0.90632,1.30693 -1.65192,1.535729 -0.71953,0.220802 -2.37764,0.229504 -3.09634,0.01626 z m 1.65445,-1.937765 c 0.35518,-0.06303 0.73343,-0.165893 0.84053,-0.228579 0.18908,-0.110672 0.18936,-0.12057 0.01,-0.341406 -0.50746,-0.624236 -1.6506,-0.815756 -2.42424,-0.406156 -0.45139,0.238977 -0.71969,0.603018 -0.5673,0.769693 0.1089,0.11909 0.79261,0.297244 1.19279,0.310794 0.16643,0.0057 0.59321,-0.04132 0.94838,-0.104346 z M 107.21471,57.621997 c 2.75827,-1.959635 5.5636,-2.961558 11.77964,-4.207104 5.14806,-1.031546 6.75721,-1.503896 8.86959,-2.603583 3.12473,-1.626694 5.3758,-3.837008 6.55891,-6.440166 0.60153,-1.323525 0.88491,-2.472223 0.99349,-4.027311 0.44198,-6.329987 -2.28295,-11.370762 -7.14228,-13.212274 -1.41514,-0.53629 -2.07425,-0.632183 -4.28683,-0.623664 -1.6881,0.0065 -2.19016,0.04809 -3.07641,0.254824 -5.53539,1.291262 -9.91037,5.352145 -12.90919,11.982364 -1.65387,3.656632 -2.64699,7.586326 -3.07039,12.149273 -0.16256,1.751891 -0.25964,4.233166 -0.16556,4.231469 0.0313,-4.17e-4 0.28387,-0.458057 0.56126,-1.016646 0.71704,-1.443966 2.29869,-4.015287 3.3436,-5.435753 1.55769,-2.117572 3.83735,-4.492702 5.93172,-6.180134 1.6586,-1.336321 5.24725,-3.503692 6.93694,-4.189563 0.44845,-0.182031 0.49267,-0.18249 0.73671,-0.0076 0.3253,0.233115 0.44918,0.585624 0.33345,0.948769 -0.0667,0.209444 -0.33739,0.414774 -1.07047,0.812204 -3.3355,1.808294 -5.72965,3.667347 -8.25403,6.409217 -2.68988,2.921649 -4.64542,6.012049 -6.24807,9.874011 -0.67243,1.620389 -0.7678,1.875351 -0.70149,1.875351 0.024,0 0.41982,-0.267153 0.87941,-0.59367 z m -7.18327,0.297118 c 0,-0.196294 -1.573196,-2.307808 -2.521656,-3.384497 -3.58009,-4.06413 -7.87726,-6.647621 -12.95939,-7.791263 -0.5491,-0.123563 -1.08276,-0.308192 -1.1859,-0.410279 -0.27058,-0.267799 -0.20188,-0.886574 0.12822,-1.154885 0.24413,-0.198442 0.30038,-0.200147 1.26082,-0.03815 6.59064,1.111516 12.1001,4.487157 16.523866,10.124166 0.782,0.996453 0.77588,1.010012 0.46069,-1.019452 -0.81102,-5.222468 -3.000386,-10.160964 -6.026776,-13.594438 -3.38527,-3.840636 -7.68032,-5.930039 -12.1928,-5.931402 -4.39027,-0.0012 -8.02264,1.626096 -10.16556,4.554496 -0.74656,1.020214 -1.44454,2.488008 -1.76842,3.718814 -0.27741,1.054178 -0.37933,3.290439 -0.20411,4.478338 0.72208,4.895497 4.45256,8.137664 10.34375,8.989782 0.60063,0.08688 2.93861,0.137489 6.90936,0.149584 5.61902,0.0171 6.08707,0.03344 7.34331,0.256213 1.39748,0.247816 2.97214,0.666843 3.56066,0.947505 0.39774,0.189687 0.493936,0.210228 0.493936,0.105481 z"
       id="path14427" />
    <path
       style="fill:#668000;stroke:none;stroke-width:3.51868;stroke-miterlimit:4;stroke-dasharray:none;stroke-opacity:1;paint-order:markers fill stroke"
       d="m 97.702604,57.071139 c -0.86328,-0.227778 -3.29617,-0.433696 -5.40641,-0.457592 -7.58305,-0.08588 -12.44024,-0.533769 -14.24135,-1.313227 -2.7058,-1.170966 -4.28816,-2.614623 -5.49785,-5.015931 -1.0281,-2.04085 -1.09245,-2.380019 -0.95105,-5.012727 0.12341,-2.297889 0.34068,-3.163159 1.16663,-4.646163 3.1047,-5.574538 10.45458,-7.311921 17.25642,-4.079111 5.34125,2.538614 10.334276,9.968227 11.357366,16.899722 l 0.23942,1.622143 -2.399446,-2.397498 c -2.83591,-2.833601 -4.86182,-4.252248 -8.26442,-5.787169 -2.74447,-1.238036 -6.40867,-2.113915 -7.35651,-1.758474 -1.2737,0.477644 -0.40587,1.359084 2.06358,2.095934 3.60379,1.075326 6.66629,2.80044 9.34123,5.26195 2.31497,2.130256 4.65119,4.746352 4.39124,4.917294 -0.0711,0.04674 -0.83557,-0.101372 -1.69885,-0.329151 z"
       id="path14564" />
    <path
       style="fill:#668000;stroke:none;stroke-width:3.51868;stroke-miterlimit:4;stroke-dasharray:none;stroke-opacity:1;paint-order:markers fill stroke"
       d="m 106.77143,57.527802 c 0,-0.09922 0.46666,-1.196841 1.03704,-2.439167 2.5579,-5.571332 7.2252,-10.864816 12.30458,-13.955405 2.69448,-1.639479 3.0678,-2.104168 2.29621,-2.858203 -0.31013,-0.303071 -0.95351,-0.115916 -2.70321,0.786352 -5.25329,2.70897 -9.16265,6.358138 -12.77807,11.927625 l -1.98423,3.05666 0.22927,-3.159488 c 0.66866,-9.214489 5.21607,-18.256791 11.00799,-21.888875 2.23458,-1.401291 5.48286,-2.391073 7.84707,-2.391073 3.07746,0 5.32893,0.912921 7.53866,3.056765 2.67592,2.596129 3.55941,4.860337 3.59537,9.214287 0.0237,2.872642 -0.0859,3.477627 -0.97085,5.359169 -2.01399,4.281882 -6.47684,7.169066 -13.29341,8.600011 -7.59699,1.59477 -11.78982,2.976656 -13.67797,4.508023 -0.24665,0.200042 -0.44845,0.282535 -0.44845,0.183319 z"
       id="path14603" />
    <path
       style="fill:url(#linearGradient14949);fill-opacity:1;stroke:none;stroke-width:3.51868;stroke-miterlimit:4;stroke-dasharray:none;stroke-opacity:1;paint-order:markers fill stroke"
       d="m 88.808184,167.51794 c -0.76736,-0.0694 -3.3572,-0.28862 -5.75521,-0.48724 -10.31484,-0.85436 -13.87862,-1.84045 -16.1905,-4.47989 -2.53121,-2.88986 -2.6455,-3.37827 -4.89135,-20.90346 -1.90974,-14.90237 -3.38293,-28.18715 -3.1509,-28.4139 0.78935,-0.77139 60.319556,-1.21889 80.503296,-0.60516 8.48265,0.25793 9.73337,0.36531 9.92538,0.85215 0.4831,1.2248 -4.70855,42.64313 -5.69872,45.46371 -0.71786,2.0449 -3.26106,4.8305 -5.34917,5.85902 -3.77462,1.85923 -12.6624,2.62175 -31.95279,2.74138 -8.824656,0.0547 -16.672666,0.0428 -17.440036,-0.0266 z"
       id="path14679" />
    <text
       xml:space="preserve"
       style="font-size:17.9566px;line-height:1.25;font-family:'Franklin Gothic Demi Cond';-inkscape-font-specification:'Franklin Gothic Demi Cond';word-spacing:0px;fill:#ffffff;stroke-width:0.448916"
       x="80.430367"
       y="134.53"
       id="text13113"
       transform="scale(0.92137009,1.0853402)"><tspan
         sodipodi:role="line"
         id="tspan13111"
         style="fill:#ffffff;stroke-width:0.448916"
         x="80.430367"
         y="134.53">Jmacetas</tspan></text>
    <g
       id="g15632"
       transform="matrix(0.14220729,0,0,0.13196093,22.607951,114.85366)">
      <path
         style="fill:#66ff00;stroke:none;stroke-width:14.878;stroke-miterlimit:4;stroke-dasharray:none;stroke-opacity:1;paint-order:markers fill stroke"
         d="m 1364.9076,484.04909 c -30.3748,-5.36963 -52.2401,-16.41115 -72.9245,-36.82547 -21.192,-20.91524 -35.8033,-49.16719 -44.6744,-86.38047 -6.6164,-27.75524 -7.8397,-41.03449 -7.9469,-86.26028 -0.056,-23.78788 0.3789,-43.73298 0.9674,-44.32244 2.483,-2.48743 51.356,13.92083 76.3159,25.62174 70.6389,33.11479 109.2053,77.63218 118.8698,137.21238 2.585,15.93612 -0.1757,52.71432 -5.269,70.19385 -5.0128,17.20355 -6.2565,19.59629 -10.7365,20.65725 -8.5502,2.0248 -43.3599,2.09076 -54.6018,0.10336 z"
         id="path15374"
         transform="scale(0.26458333)" />
      <path
         style="fill:#66ff00;stroke:none;stroke-width:14.878;stroke-miterlimit:4;stroke-dasharray:none;stroke-opacity:1;paint-order:markers fill stroke"
         d="m 1470.6007,478.40818 c -12.3559,-24.74026 -13.9022,-58.98379 -3.7946,-84.03213 10.5557,-26.15853 34.5983,-49.75203 67.6046,-66.34152 15.2052,-7.64241 27.0985,-12.66038 41.175,-17.37241 10.7223,-3.58923 31.6496,-9.59501 33.4341,-9.59501 4.0391,0 1.8977,46.43545 -3.3281,72.16863 -7.1125,35.02359 -17.3177,55.95678 -37.5492,77.02125 -20.2969,21.13264 -44.9954,31.75939 -78.8518,33.92667 l -15.3159,0.98044 z"
         id="path15413"
         transform="scale(0.26458333)" />
    </g>
    <path
       style="fill:url(#linearGradient15179);fill-opacity:1;stroke:none;stroke-width:3.51868;stroke-miterlimit:4;stroke-dasharray:none;stroke-opacity:1;paint-order:markers fill stroke"
       d="m 52.810944,108.97966 c -1.645,-1.2645 -1.84771,-2.17623 -1.84632,-8.30411 10e-4,-6.233092 0.25462,-7.196772 2.22189,-8.456438 3.1116,-1.992405 64.382726,-2.546884 94.821886,-0.858102 6.56644,0.364312 7.51675,0.656582 8.46158,2.602326 0.94723,1.950696 1.20077,10.797564 0.37035,12.922504 -1.13111,2.89434 3.89698,2.63875 -52.7605,2.68195 -48.479126,0.037 -50.485636,0.014 -51.268886,-0.58813 z"
       id="path14718" />
    <path
       style="fill:#552200;stroke:none;stroke-width:3.51868;stroke-miterlimit:4;stroke-dasharray:none;stroke-opacity:1;paint-order:markers fill stroke"
       d="m 61.519114,87.109335 c 0.20446,-0.37495 1.32694,-1.615022 2.49439,-2.755719 3.75423,-3.668188 8.70059,-5.282896 14.11169,-4.60668 1.41429,0.176742 2.74845,0.248347 2.96481,0.159121 0.21635,-0.08923 1.00677,-0.964338 1.75647,-1.944699 2.87759,-3.762914 6.29307,-5.458453 11.01932,-5.470308 3.31128,-0.0083 5.26954,0.63709 8.280416,2.729024 0.912,0.633649 1.75068,1.15209 1.86373,1.15209 0.11306,0 1.21228,-0.791171 2.44272,-1.758158 3.57646,-2.810689 7.11582,-4.036507 11.65478,-4.036507 4.96968,0 10.18958,2.046999 13.86756,5.438204 1.93008,1.779593 2.09807,2.034689 1.47967,2.246901 -0.38368,0.131664 -1.53243,0.60015 -2.55277,1.041084 -1.66576,0.719844 -1.84383,0.898235 -1.74401,1.747202 0.1336,1.136216 0.79903,1.175196 4.81998,0.282343 5.44999,-1.210172 10.34898,0.490655 13.2212,4.590123 0.59379,0.847506 1.07964,1.614446 1.07964,1.704313 0,0.08986 -19.60454,0.16339 -43.56567,0.16339 -43.457056,0 -43.564746,-0.0016 -43.193926,-0.681724 z m 81.439236,-0.739091 c 0.61056,-0.815986 0.55913,-1.047434 -0.45241,-2.035951 -0.69492,-0.679106 -1.09516,-0.818881 -1.82925,-0.638828 -1.30288,0.319559 -1.81562,0.807254 -1.81562,1.726947 0,1.264662 0.96883,1.958855 2.41398,1.729679 0.68538,-0.108691 1.44286,-0.460523 1.6833,-0.781847 z m -51.272556,-0.10933 c 0.96217,-0.573294 1.1336,-0.873408 1.1336,-1.984483 0,-3.151762 -4.63206,-4.567122 -6.78059,-2.071861 -1.14849,1.333852 -1.16235,2.797812 -0.0369,3.89767 1.11901,1.093548 3.98077,1.173438 5.68386,0.158674 z m -16.6323,-2.742628 c 1.52632,-0.798274 0.34143,-3.055772 -1.60388,-3.055772 -1.67885,0 -2.58172,1.438847 -1.68656,2.687768 0.56595,0.789623 2.14634,0.966373 3.29044,0.368004 z M 124.99173,80.53322 c 1.40236,-1.370445 0.5452,-3.79319 -1.5851,-4.480252 -2.59886,-0.838183 -5.61909,1.39033 -4.78607,3.531464 0.72283,1.857918 4.81697,2.467615 6.37117,0.948788 z"
       id="path14794" />
  </g>
</svg>
